<svg width="21" height="16" viewBox="0 0 21 16" fill="none" xmlns="http://www.w3.org/2000/svg">
<path d="M3.36171 9.10833C5.78767 9.10833 7.47168 6.91041 7.47168 5.11238C7.47168 3.77099 6.24431 3.20006 5.04571 3.20006C2.39062 3.20006 0.935741 5.57036 0.935741 7.19601C0.935741 8.5374 2.19162 9.10833 3.36171 9.10833ZM9.86967 9.10833C12.2956 9.10833 13.9796 6.91041 13.9796 5.11238C13.9796 3.77099 12.7238 3.20006 11.5249 3.20006C8.87062 3.20006 7.4152 5.56902 7.4152 7.19601C7.4152 8.5374 8.69958 9.10833 9.86967 9.10833ZM17.3189 8.99403H19.3452L21.0002 0.917969H18.9453L18.4599 3.31543L17.6037 3.22991C15.6058 3.22991 13.7793 5.79841 13.7793 7.62521C13.7793 8.36717 14.2634 9.1094 15.0922 9.1094C16.2623 9.1094 17.09 8.53848 17.4318 7.96755H17.5459L17.3189 8.99403ZM10.9822 13.2468C9.38719 14.5684 7.33853 15.2137 5.27403 15.0448C2.56246 14.8735 0.621637 12.7899 0.279297 10.5923H0.393321C1.02126 11.9638 2.53396 13.2468 4.38927 13.4463C6.27174 13.6747 8.52774 12.8187 9.75485 11.6483L8.38494 10.5923H12.5234L11.6091 14.9878L11.0096 13.2753L10.9822 13.2468Z" fill="white"/>
</svg>
